<svg width="84" height="46" viewBox="0 0 84 46" fill="none" xmlns="http://www.w3.org/2000/svg">
<path d="M20.2255 0.398407C20.2255 0.61293 21.7577 3.40174 23.6271 6.58894C25.4964 9.8068 28.4076 14.8021 30.0624 17.6829L33.1269 22.9847L32.2995 24.4251C30.7673 27.2139 29.0205 30.0333 28.806 30.1865C28.6528 30.2785 27.3657 28.2252 25.8948 25.6509C24.4238 23.1073 22.4932 19.7362 21.6045 18.2345C20.7465 16.7022 19.5513 14.6489 18.9997 13.6376C17.4062 10.7568 17.3449 10.7262 14.9546 10.7262C13.6369 10.7262 12.8708 10.8488 12.8708 11.0633C12.8708 11.2472 13.8208 13.0247 14.9546 14.986C16.1191 16.9474 18.4175 20.8701 20.0723 23.7508C21.7271 26.6009 23.6577 29.9107 24.3625 31.1059C26.6609 34.8754 26.6609 34.2012 24.3319 38.1852C23.2287 40.1159 22.248 41.6789 22.2174 41.6176C22.1868 41.5563 21.7577 40.8514 21.2981 40.024C19.7965 37.2352 11.9208 23.5057 9.34663 19.1539C7.96762 16.7941 6.31281 13.944 5.69991 12.7795L4.53541 10.7262H2.26771C1.01127 10.7262 0 10.7875 0 10.8794C0 10.9714 1.28708 13.3005 2.8806 16.028C4.44348 18.7555 6.12894 21.6669 6.58861 22.525C8.85632 26.5703 9.89824 28.3784 12.4724 32.7915C15.3223 37.6949 17.6207 41.6176 19.2142 44.2838L20.1029 45.8161L22.2787 45.9081L24.4545 46L27.1512 41.3111C28.6221 38.7368 31.5947 33.6189 33.7705 29.9107C35.9156 26.2332 37.693 23.1379 37.693 23.0153C37.693 22.8008 26.2625 2.81946 24.9448 0.674221C24.5464 0.0919418 24.24 3.8147e-06 22.3706 3.8147e-06C20.8384 3.8147e-06 20.2255 0.122589 20.2255 0.398407Z" fill="url(#paint0_linear_5_3)"/>
<path d="M33.0043 0.214523C32.9124 0.367755 34.5672 3.43238 36.651 7.04863C38.7655 10.6649 40.6961 14.0973 40.9719 14.6183C41.2477 15.1699 41.6155 15.6296 41.7994 15.6296C42.1977 15.6296 50.8702 0.582278 50.6863 0.24517C50.5944 0.122584 49.5831 0 48.4492 0H46.3348L44.1283 3.86143C42.1977 7.23251 41.8606 7.63091 41.5542 7.14057C41.3397 6.83411 40.2978 5.11792 39.2558 3.27915L37.3252 0H35.2414C34.0769 0 33.0656 0.091939 33.0043 0.214523Z" fill="url(#paint1_linear_5_3)"/>
<path d="M57.3669 3.12592C55.8653 5.73085 49.767 16.2732 46.6719 21.6669L45.9058 22.9847L46.6412 24.2718C47.0703 25.0073 50.0428 30.064 53.2605 35.5496L59.1136 45.5097L61.3813 45.6016L63.649 45.6935L64.6297 43.9161C65.1506 42.9354 65.7329 41.9241 65.8861 41.6789C66.0393 41.4337 66.8974 39.9627 67.7554 38.461C68.6441 36.9287 70.207 34.2625 71.2489 32.485C75.1408 25.8654 83.66 11.0633 83.66 10.9101C83.66 10.7875 82.71 10.7262 81.5149 10.7262C79.3698 10.7262 79.3698 10.7262 78.6343 11.8601C77.9295 12.9634 65.1506 35.1819 62.6991 39.6256C62.0555 40.7595 61.4426 41.6176 61.2894 41.5257C61.1362 41.4337 60.1862 39.8708 59.1443 38.0013C57.4588 35.0287 57.3056 34.5996 57.6427 33.956C57.8572 33.5576 60.891 28.3171 64.4152 22.2798C67.9393 16.2425 70.728 11.1859 70.636 11.0326C70.5441 10.8488 69.5635 10.7262 68.4603 10.7262H66.499L65.7022 12.0133C65.2732 12.7488 63.2813 16.2119 61.2588 19.7668C59.2056 23.2911 56.9685 27.2139 56.233 28.4397L54.9459 30.7075L52.7395 26.8155L50.5638 22.954L55.6508 14.1586C58.4701 9.31646 60.9829 4.93405 61.2894 4.44371C61.5652 3.92273 62.2394 2.81946 62.7603 1.93072C63.2813 1.07262 63.6184 0.275822 63.5265 0.183884C63.4039 0.0919456 62.3926 7.62939e-06 61.2588 7.62939e-06H59.2056L57.3669 3.12592Z" fill="url(#paint2_linear_5_3)"/>
<path d="M41.1252 31.0753C40.9413 31.5044 39.072 34.8754 36.9575 38.5836C34.843 42.2918 33.0963 45.4484 33.0963 45.6016C33.0963 45.8468 35.3333 45.8774 37.4784 45.6936C37.601 45.6629 37.693 45.5403 37.693 45.3871C37.693 45.2339 38.6123 43.5483 39.7462 41.6789C42.1058 37.7255 41.6155 37.6336 44.4961 42.5064L46.3348 45.6629H48.4492C49.6137 45.6629 50.5637 45.6016 50.5637 45.5403C50.5637 44.9887 42.1058 30.3398 41.7993 30.3398C41.6155 30.3398 41.309 30.6769 41.1252 31.0753Z" fill="url(#paint3_linear_5_3)"/>
<defs>
<linearGradient id="paint0_linear_5_3" x1="0.675824" y1="33.5" x2="40.1116" y2="29.7152" gradientUnits="userSpaceOnUse">
<stop offset="0.255494" stop-color="#1E1E1E"/>
<stop offset="1" stop-color="#9A9B9D"/>
</linearGradient>
<linearGradient id="paint1_linear_5_3" x1="33.3178" y1="11.3824" x2="51.6721" y2="8.94943" gradientUnits="userSpaceOnUse">
<stop offset="0.255494" stop-color="#1E1E1E"/>
<stop offset="1" stop-color="#9A9B9D"/>
</linearGradient>
<linearGradient id="paint2_linear_5_3" x1="46.5827" y1="33.2768" x2="86.0765" y2="29.4548" gradientUnits="userSpaceOnUse">
<stop offset="0.255494" stop-color="#1E1E1E"/>
<stop offset="1" stop-color="#9A9B9D"/>
</linearGradient>
<linearGradient id="paint3_linear_5_3" x1="33.4094" y1="41.6074" x2="51.5359" y2="39.2105" gradientUnits="userSpaceOnUse">
<stop offset="0.255494" stop-color="#1E1E1E"/>
<stop offset="1" stop-color="#9A9B9D"/>
</linearGradient>
</defs>
</svg>
