<svg width="438" height="243" viewBox="0 0 438 243" fill="none" xmlns="http://www.w3.org/2000/svg">
<g filter="url(#filter0_f_26_2)">
<path d="M272.099 309.539C285.928 323.617 299.915 322.881 310.01 312.965C331.074 292.274 216.494 160.646 180.442 159.082C153.947 157.934 137.51 177.564 145.375 198.483C154.263 222.123 151.907 222.897 173.573 233.418C191.65 242.198 214.292 249.953 232.928 260.808C250.37 270.968 259.816 297.034 272.099 309.539Z" fill="#7149E1"/>
</g>
<g filter="url(#filter1_f_26_2)">
<path d="M312.288 197.549C365.391 233.884 350.779 295.884 370.758 306.042C395.873 318.811 420.959 267.592 412.702 237.219C402.97 201.418 276.301 172.925 312.288 197.549Z" fill="#A70A5F"/>
</g>
<g filter="url(#filter2_f_26_2)">
<ellipse cx="76.1903" cy="250.262" rx="48.6425" ry="44.3694" transform="rotate(-124.782 76.1903 250.262)" fill="#E149CF"/>
</g>
<g filter="url(#filter3_d_26_2)">
<ellipse cx="335.792" cy="118.189" rx="335.792" ry="118.189" transform="matrix(0.999643 -0.02671 -0.318598 0.94789 -122.128 129.893)" stroke="url(#paint0_linear_26_2)" stroke-width="5.81"/>
<g style="mix-blend-mode:screen" filter="url(#filter4_f_26_2)">
<ellipse cx="335.792" cy="118.189" rx="335.792" ry="118.189" transform="matrix(0.999643 -0.02671 -0.318598 0.94789 -122.128 129.893)" stroke="url(#paint1_linear_26_2)" stroke-width="5.81"/>
</g>
</g>
<g filter="url(#filter5_b_26_2)">
<rect x="35" y="125.244" width="44" height="47" rx="10" transform="rotate(-27.3937 35 125.244)" fill="url(#paint2_radial_26_2)" fill-opacity="0.5"/>
<rect x="36.011" y="125.565" width="42.5" height="45.5" rx="9.25" transform="rotate(-27.3937 36.011 125.565)" stroke="url(#paint3_radial_26_2)" stroke-width="1.5"/>
<rect x="36.011" y="125.565" width="42.5" height="45.5" rx="9.25" transform="rotate(-27.3937 36.011 125.565)" stroke="url(#paint4_radial_26_2)" stroke-width="1.5"/>
<rect x="36.011" y="125.565" width="42.5" height="45.5" rx="9.25" transform="rotate(-27.3937 36.011 125.565)" stroke="url(#paint5_linear_26_2)" stroke-width="1.5"/>
</g>
<g clip-path="url(#clip0_26_2)">
<path d="M72.8709 150.223C80.6902 146.107 83.692 136.431 79.5757 128.612C75.4595 120.793 65.7838 117.791 57.9645 121.907C50.1453 126.024 47.1434 135.699 51.2597 143.519C55.376 151.338 65.0516 154.34 72.8709 150.223Z" fill="black"/>
<path d="M80.3702 141.759L59.1558 132.129L56.7732 133.383L62.7334 144.705L64.6392 143.702L59.9531 134.8L79.4815 143.699C79.8207 143.071 80.118 142.423 80.3702 141.759Z" fill="url(#paint6_linear_26_2)"/>
<path d="M68.2578 127.338L66.3697 128.332L72.3323 139.658L74.2204 138.664L68.2578 127.338Z" fill="url(#paint7_linear_26_2)"/>
</g>
<g filter="url(#filter6_b_26_2)">
<rect x="366.221" y="96" width="44" height="47" rx="10" transform="rotate(21.4942 366.221 96)" fill="url(#paint8_radial_26_2)" fill-opacity="0.5"/>
<rect x="366.644" y="96.9726" width="42.5" height="45.5" rx="9.25" transform="rotate(21.4942 366.644 96.9726)" stroke="url(#paint9_radial_26_2)" stroke-width="1.5"/>
<rect x="366.644" y="96.9726" width="42.5" height="45.5" rx="9.25" transform="rotate(21.4942 366.644 96.9726)" stroke="url(#paint10_radial_26_2)" stroke-width="1.5"/>
<rect x="366.644" y="96.9726" width="42.5" height="45.5" rx="9.25" transform="rotate(21.4942 366.644 96.9726)" stroke="url(#paint11_linear_26_2)" stroke-width="1.5"/>
</g>
<g clip-path="url(#clip1_26_2)">
<path d="M375.686 107.5L392.301 114.347C395.951 115.851 397.69 120.029 396.186 123.679L389.339 140.294C387.835 143.943 383.657 145.682 380.008 144.178L363.393 137.331C359.743 135.827 358.004 131.649 359.508 128L366.355 111.385C367.859 107.735 372.037 105.996 375.686 107.5Z" fill="url(#paint12_linear_26_2)"/>
<path d="M384.2 139.561C384.2 139.561 383.838 137.153 381.907 136.357C380.04 135.588 378.15 137.068 374.385 135.516C366.05 132.082 364.946 123.52 364.937 123.454C364.937 123.453 364.937 123.453 364.937 123.453L363.233 118.894L366.332 111.373C367.836 107.723 372.014 105.984 375.664 107.488L381.562 109.919L384.101 116.141C384.102 116.141 384.102 116.142 384.102 116.142C391.19 126.894 384.967 132.95 384.967 132.95C384.967 132.95 386.467 137.258 384.2 139.561Z" fill="url(#paint13_linear_26_2)"/>
<path d="M384.124 116.153C391.213 126.906 384.99 132.962 384.99 132.962C384.99 132.962 386.49 137.27 384.223 139.573C384.223 139.573 383.86 137.165 381.93 136.369C380.063 135.6 378.173 137.08 374.408 135.528C366.04 132.08 364.96 123.465 364.96 123.465C370.448 131.535 377.043 130.139 377.043 130.139C374.458 126.764 371.118 114.37 371.118 114.37C375.206 122.318 377.344 124.842 377.344 124.842C376.269 122.832 374.414 114.411 374.414 114.411C376.538 119.598 381.658 127.711 381.658 127.711C386.059 122.889 384.124 116.153 384.124 116.153Z" fill="white"/>
</g>
<g filter="url(#filter7_b_26_2)">
<rect x="263.043" y="91" width="44" height="47" rx="10" transform="rotate(0.0526542 263.043 91)" fill="url(#paint14_radial_26_2)" fill-opacity="0.5"/>
<rect x="263.792" y="91.7507" width="42.5" height="45.5" rx="9.25" transform="rotate(0.0526542 263.792 91.7507)" stroke="url(#paint15_radial_26_2)" stroke-width="1.5"/>
<rect x="263.792" y="91.7507" width="42.5" height="45.5" rx="9.25" transform="rotate(0.0526542 263.792 91.7507)" stroke="url(#paint16_radial_26_2)" stroke-width="1.5"/>
<rect x="263.792" y="91.7507" width="42.5" height="45.5" rx="9.25" transform="rotate(0.0526542 263.792 91.7507)" stroke="url(#paint17_linear_26_2)" stroke-width="1.5"/>
</g>
<path d="M280.278 129.167C282.884 129.167 285 127.051 285 124.444V119.722H280.278C277.671 119.722 275.556 121.838 275.556 124.444C275.556 127.051 277.671 129.167 280.278 129.167Z" fill="#0ACF83"/>
<path d="M275.556 115C275.556 112.393 277.671 110.278 280.278 110.278H285V119.722H280.278C277.671 119.722 275.556 117.607 275.556 115Z" fill="#A259FF"/>
<path d="M275.556 105.556C275.556 102.949 277.671 100.833 280.278 100.833H285V110.278H280.278C277.671 110.278 275.556 108.162 275.556 105.556Z" fill="#F24E1E"/>
<path d="M285 100.833H289.722C292.329 100.833 294.444 102.949 294.444 105.556C294.444 108.162 292.329 110.278 289.722 110.278H285V100.833Z" fill="#FF7262"/>
<path d="M294.444 115C294.444 117.607 292.329 119.722 289.722 119.722C287.116 119.722 285 117.607 285 115C285 112.393 287.116 110.278 289.722 110.278C292.329 110.278 294.444 112.393 294.444 115Z" fill="#1ABCFE"/>
<g filter="url(#filter8_b_26_2)">
<rect x="151.043" y="96" width="44" height="47" rx="10" transform="rotate(0.0526542 151.043 96)" fill="url(#paint18_radial_26_2)" fill-opacity="0.5"/>
<rect x="151.792" y="96.7507" width="42.5" height="45.5" rx="9.25" transform="rotate(0.0526542 151.792 96.7507)" stroke="url(#paint19_radial_26_2)" stroke-width="1.5"/>
<rect x="151.792" y="96.7507" width="42.5" height="45.5" rx="9.25" transform="rotate(0.0526542 151.792 96.7507)" stroke="url(#paint20_radial_26_2)" stroke-width="1.5"/>
<rect x="151.792" y="96.7507" width="42.5" height="45.5" rx="9.25" transform="rotate(0.0526542 151.792 96.7507)" stroke="url(#paint21_linear_26_2)" stroke-width="1.5"/>
</g>
<path d="M172.972 122.822C174.543 122.822 175.816 121.548 175.816 119.977C175.816 118.406 174.543 117.133 172.972 117.133C171.401 117.133 170.127 118.406 170.127 119.977C170.127 121.548 171.401 122.822 172.972 122.822Z" fill="#00D8FF"/>
<path d="M172.972 126.494C168.977 126.494 165.486 126.024 162.874 125.128C161.179 124.55 159.74 123.78 158.714 122.901C157.626 121.972 157.048 120.958 157.048 119.977C157.048 118.096 159.111 116.254 162.573 115.053C165.407 114.067 169.101 113.517 172.966 113.517C176.763 113.517 180.406 114.05 183.223 115.025C184.872 115.591 186.26 116.328 187.246 117.144C188.317 118.039 188.884 119.02 188.884 119.977C188.884 121.932 186.577 123.91 182.86 125.14C180.231 126.012 176.717 126.494 172.972 126.494ZM172.972 114.877C169.305 114.877 165.679 115.41 163.027 116.334C159.842 117.444 158.414 118.963 158.414 119.977C158.414 121.031 159.95 122.692 163.316 123.842C165.786 124.686 169.13 125.134 172.972 125.134C176.576 125.134 179.936 124.681 182.435 123.848C185.931 122.686 187.529 121.026 187.529 119.977C187.529 119.439 187.121 118.804 186.379 118.187C185.523 117.473 184.277 116.821 182.786 116.305C180.106 115.387 176.621 114.877 172.972 114.877Z" fill="#00D8FF"/>
<path d="M166.517 134.155C165.939 134.155 165.429 134.031 164.999 133.781C163.372 132.841 162.806 130.132 163.491 126.534C164.052 123.581 165.424 120.113 167.356 116.764C169.254 113.478 171.532 110.588 173.782 108.633C175.097 107.488 176.428 106.649 177.63 106.207C178.939 105.726 180.072 105.726 180.899 106.202C182.594 107.176 183.155 110.168 182.361 113.999C181.8 116.719 180.463 120 178.593 123.247C176.598 126.704 174.445 129.492 172.365 131.311C171.017 132.489 169.628 133.351 168.359 133.798C167.696 134.036 167.073 134.155 166.517 134.155ZM167.94 117.104L168.529 117.444C166.699 120.618 165.344 124.023 164.823 126.789C164.194 130.104 164.8 132.098 165.673 132.603C165.888 132.727 166.172 132.795 166.517 132.795C167.645 132.795 169.419 132.081 171.47 130.291C173.436 128.574 175.493 125.899 177.414 122.573C179.216 119.45 180.497 116.311 181.03 113.733C181.772 110.123 181.132 107.913 180.219 107.386C179.755 107.12 179.001 107.154 178.094 107.488C177.046 107.873 175.862 108.627 174.672 109.664C172.535 111.523 170.354 114.288 168.529 117.45L167.94 117.104Z" fill="#00D8FF"/>
<path d="M179.426 134.172C177.885 134.172 175.93 133.243 173.89 131.486C171.612 129.526 169.294 126.607 167.356 123.258C165.452 119.972 164.092 116.555 163.52 113.625C163.185 111.914 163.123 110.344 163.338 109.08C163.576 107.703 164.137 106.723 164.97 106.241C166.659 105.261 169.532 106.27 172.456 108.871C174.53 110.712 176.706 113.512 178.582 116.753C180.582 120.21 181.925 123.468 182.458 126.177C182.803 127.933 182.86 129.565 182.616 130.891C182.356 132.302 181.766 133.305 180.916 133.798C180.491 134.048 179.987 134.172 179.426 134.172ZM168.535 122.578C170.371 125.752 172.649 128.625 174.779 130.455C177.335 132.654 179.364 133.13 180.242 132.62C181.154 132.093 181.823 129.934 181.132 126.443C180.622 123.882 179.335 120.765 177.409 117.439C175.601 114.316 173.521 111.636 171.555 109.891C168.801 107.443 166.568 106.893 165.656 107.42C165.191 107.686 164.846 108.361 164.681 109.313C164.494 110.412 164.551 111.817 164.857 113.364C165.401 116.147 166.704 119.416 168.535 122.578Z" fill="#00D8FF"/>
<defs>
<filter id="filter0_f_26_2" x="35.4321" y="51.0655" width="385.111" height="377.182" filterUnits="userSpaceOnUse" color-interpolation-filters="sRGB">
<feFlood flood-opacity="0" result="BackgroundImageFix"/>
<feBlend mode="normal" in="SourceGraphic" in2="BackgroundImageFix" result="shape"/>
<feGaussianBlur stdDeviation="53.9844" result="effect1_foregroundBlur_26_2"/>
</filter>
<filter id="filter1_f_26_2" x="197.902" y="80.3401" width="324.373" height="335.676" filterUnits="userSpaceOnUse" color-interpolation-filters="sRGB">
<feFlood flood-opacity="0" result="BackgroundImageFix"/>
<feBlend mode="normal" in="SourceGraphic" in2="BackgroundImageFix" result="shape"/>
<feGaussianBlur stdDeviation="53.9844" result="effect1_foregroundBlur_26_2"/>
</filter>
<filter id="filter2_f_26_2" x="-70.8367" y="101.741" width="294.054" height="297.042" filterUnits="userSpaceOnUse" color-interpolation-filters="sRGB">
<feFlood flood-opacity="0" result="BackgroundImageFix"/>
<feBlend mode="normal" in="SourceGraphic" in2="BackgroundImageFix" result="shape"/>
<feGaussianBlur stdDeviation="50.6104" result="effect1_foregroundBlur_26_2"/>
</filter>
<filter id="filter3_d_26_2" x="-209.085" y="82.5115" width="769.949" height="318.531" filterUnits="userSpaceOnUse" color-interpolation-filters="sRGB">
<feFlood flood-opacity="0" result="BackgroundImageFix"/>
<feColorMatrix in="SourceAlpha" type="matrix" values="0 0 0 0 0 0 0 0 0 0 0 0 0 0 0 0 0 0 127 0" result="hardAlpha"/>
<feOffset dy="8.82334"/>
<feGaussianBlur stdDeviation="22.0583"/>
<feComposite in2="hardAlpha" operator="out"/>
<feColorMatrix type="matrix" values="0 0 0 0 0 0 0 0 0 0 0 0 0 0 0 0 0 0 0.45 0"/>
<feBlend mode="normal" in2="BackgroundImageFix" result="effect1_dropShadow_26_2"/>
<feBlend mode="normal" in="SourceGraphic" in2="effect1_dropShadow_26_2" result="shape"/>
</filter>
<filter id="filter4_f_26_2" x="-171.826" y="110.948" width="695.429" height="244.011" filterUnits="userSpaceOnUse" color-interpolation-filters="sRGB">
<feFlood flood-opacity="0" result="BackgroundImageFix"/>
<feBlend mode="normal" in="SourceGraphic" in2="BackgroundImageFix" result="shape"/>
<feGaussianBlur stdDeviation="3.42846" result="effect1_foregroundBlur_26_2"/>
</filter>
<filter id="filter5_b_26_2" x="-13.5224" y="56.4776" width="157.736" height="159.019" filterUnits="userSpaceOnUse" color-interpolation-filters="sRGB">
<feFlood flood-opacity="0" result="BackgroundImageFix"/>
<feGaussianBlur in="BackgroundImageFix" stdDeviation="26"/>
<feComposite in2="SourceAlpha" operator="in" result="effect1_backgroundBlur_26_2"/>
<feBlend mode="normal" in="SourceGraphic" in2="effect1_backgroundBlur_26_2" result="shape"/>
</filter>
<filter id="filter6_b_26_2" x="299.966" y="46.9659" width="156.229" height="157.921" filterUnits="userSpaceOnUse" color-interpolation-filters="sRGB">
<feFlood flood-opacity="0" result="BackgroundImageFix"/>
<feGaussianBlur in="BackgroundImageFix" stdDeviation="26"/>
<feComposite in2="SourceAlpha" operator="in" result="effect1_backgroundBlur_26_2"/>
<feBlend mode="normal" in="SourceGraphic" in2="effect1_backgroundBlur_26_2" result="shape"/>
</filter>
<filter id="filter7_b_26_2" x="211.009" y="39.0092" width="148.025" height="151.022" filterUnits="userSpaceOnUse" color-interpolation-filters="sRGB">
<feFlood flood-opacity="0" result="BackgroundImageFix"/>
<feGaussianBlur in="BackgroundImageFix" stdDeviation="26"/>
<feComposite in2="SourceAlpha" operator="in" result="effect1_backgroundBlur_26_2"/>
<feBlend mode="normal" in="SourceGraphic" in2="effect1_backgroundBlur_26_2" result="shape"/>
</filter>
<filter id="filter8_b_26_2" x="99.0092" y="44.0092" width="148.025" height="151.022" filterUnits="userSpaceOnUse" color-interpolation-filters="sRGB">
<feFlood flood-opacity="0" result="BackgroundImageFix"/>
<feGaussianBlur in="BackgroundImageFix" stdDeviation="26"/>
<feComposite in2="SourceAlpha" operator="in" result="effect1_backgroundBlur_26_2"/>
<feBlend mode="normal" in="SourceGraphic" in2="effect1_backgroundBlur_26_2" result="shape"/>
</filter>
<linearGradient id="paint0_linear_26_2" x1="675.365" y1="31.5106" x2="673.503" y2="187.675" gradientUnits="userSpaceOnUse">
<stop stop-color="#B09CFF"/>
<stop offset="1" stop-color="#CF9CFF" stop-opacity="0"/>
</linearGradient>
<linearGradient id="paint1_linear_26_2" x1="675.365" y1="31.5106" x2="673.503" y2="187.675" gradientUnits="userSpaceOnUse">
<stop stop-color="#BC66FF"/>
<stop offset="1" stop-color="#CF9CFF" stop-opacity="0"/>
</linearGradient>
<radialGradient id="paint2_radial_26_2" cx="0" cy="0" r="1" gradientUnits="userSpaceOnUse" gradientTransform="translate(35.3958 126.643) rotate(45.9634) scale(61.758 98.7688)">
<stop stop-color="white" stop-opacity="0.4"/>
<stop offset="1" stop-color="white" stop-opacity="0"/>
</radialGradient>
<radialGradient id="paint3_radial_26_2" cx="0" cy="0" r="1" gradientUnits="userSpaceOnUse" gradientTransform="translate(35.3958 126.643) rotate(45.9634) scale(61.758 98.7688)">
<stop stop-color="#D8D8D8" stop-opacity="0"/>
<stop offset="1" stop-color="#D8D8D8"/>
</radialGradient>
<radialGradient id="paint4_radial_26_2" cx="0" cy="0" r="1" gradientUnits="userSpaceOnUse" gradientTransform="translate(35.6053 170.807) rotate(-45.9527) scale(61.4448 98.1668)">
<stop stop-color="#D8D8D8" stop-opacity="0"/>
<stop offset="1" stop-color="#D8D8D8"/>
</radialGradient>
<linearGradient id="paint5_linear_26_2" x1="35.8148" y1="126.526" x2="87.8428" y2="148.78" gradientUnits="userSpaceOnUse">
<stop stop-color="white" stop-opacity="0.9"/>
<stop offset="1" stop-color="white" stop-opacity="0"/>
</linearGradient>
<linearGradient id="paint6_linear_26_2" x1="69.0572" y1="141.716" x2="77.3494" y2="145.293" gradientUnits="userSpaceOnUse">
<stop stop-color="white"/>
<stop offset="1" stop-color="white" stop-opacity="0"/>
</linearGradient>
<linearGradient id="paint7_linear_26_2" x1="67.3108" y1="127.832" x2="71.6556" y2="136.168" gradientUnits="userSpaceOnUse">
<stop stop-color="white"/>
<stop offset="1" stop-color="white" stop-opacity="0"/>
</linearGradient>
<radialGradient id="paint8_radial_26_2" cx="0" cy="0" r="1" gradientUnits="userSpaceOnUse" gradientTransform="translate(366.617 97.3983) rotate(45.9634) scale(61.758 98.7688)">
<stop stop-color="white" stop-opacity="0.4"/>
<stop offset="1" stop-color="white" stop-opacity="0"/>
</radialGradient>
<radialGradient id="paint9_radial_26_2" cx="0" cy="0" r="1" gradientUnits="userSpaceOnUse" gradientTransform="translate(366.617 97.3983) rotate(45.9634) scale(61.758 98.7688)">
<stop stop-color="#D8D8D8" stop-opacity="0"/>
<stop offset="1" stop-color="#D8D8D8"/>
</radialGradient>
<radialGradient id="paint10_radial_26_2" cx="0" cy="0" r="1" gradientUnits="userSpaceOnUse" gradientTransform="translate(366.826 141.563) rotate(-45.9527) scale(61.4448 98.1668)">
<stop stop-color="#D8D8D8" stop-opacity="0"/>
<stop offset="1" stop-color="#D8D8D8"/>
</radialGradient>
<linearGradient id="paint11_linear_26_2" x1="367.036" y1="97.2818" x2="419.064" y2="119.535" gradientUnits="userSpaceOnUse">
<stop stop-color="white" stop-opacity="0.9"/>
<stop offset="1" stop-color="white" stop-opacity="0"/>
</linearGradient>
<linearGradient id="paint12_linear_26_2" x1="387.254" y1="111.015" x2="368.44" y2="140.664" gradientUnits="userSpaceOnUse">
<stop stop-color="#FAAE42"/>
<stop offset="1" stop-color="#EF3E31"/>
</linearGradient>
<linearGradient id="paint13_linear_26_2" x1="384.097" y1="111.528" x2="370.329" y2="133.226" gradientUnits="userSpaceOnUse">
<stop stop-color="#E39F3A"/>
<stop offset="1" stop-color="#D33929"/>
</linearGradient>
<radialGradient id="paint14_radial_26_2" cx="0" cy="0" r="1" gradientUnits="userSpaceOnUse" gradientTransform="translate(263.439 92.3983) rotate(45.9634) scale(61.758 98.7688)">
<stop stop-color="white" stop-opacity="0.4"/>
<stop offset="1" stop-color="white" stop-opacity="0"/>
</radialGradient>
<radialGradient id="paint15_radial_26_2" cx="0" cy="0" r="1" gradientUnits="userSpaceOnUse" gradientTransform="translate(263.439 92.3983) rotate(45.9634) scale(61.758 98.7688)">
<stop stop-color="#D8D8D8" stop-opacity="0"/>
<stop offset="1" stop-color="#D8D8D8"/>
</radialGradient>
<radialGradient id="paint16_radial_26_2" cx="0" cy="0" r="1" gradientUnits="userSpaceOnUse" gradientTransform="translate(263.648 136.563) rotate(-45.9527) scale(61.4448 98.1668)">
<stop stop-color="#D8D8D8" stop-opacity="0"/>
<stop offset="1" stop-color="#D8D8D8"/>
</radialGradient>
<linearGradient id="paint17_linear_26_2" x1="263.858" y1="92.2818" x2="315.886" y2="114.535" gradientUnits="userSpaceOnUse">
<stop stop-color="white" stop-opacity="0.9"/>
<stop offset="1" stop-color="white" stop-opacity="0"/>
</linearGradient>
<radialGradient id="paint18_radial_26_2" cx="0" cy="0" r="1" gradientUnits="userSpaceOnUse" gradientTransform="translate(151.439 97.3983) rotate(45.9634) scale(61.758 98.7688)">
<stop stop-color="white" stop-opacity="0.4"/>
<stop offset="1" stop-color="white" stop-opacity="0"/>
</radialGradient>
<radialGradient id="paint19_radial_26_2" cx="0" cy="0" r="1" gradientUnits="userSpaceOnUse" gradientTransform="translate(151.439 97.3983) rotate(45.9634) scale(61.758 98.7688)">
<stop stop-color="#D8D8D8" stop-opacity="0"/>
<stop offset="1" stop-color="#D8D8D8"/>
</radialGradient>
<radialGradient id="paint20_radial_26_2" cx="0" cy="0" r="1" gradientUnits="userSpaceOnUse" gradientTransform="translate(151.648 141.563) rotate(-45.9527) scale(61.4448 98.1668)">
<stop stop-color="#D8D8D8" stop-opacity="0"/>
<stop offset="1" stop-color="#D8D8D8"/>
</radialGradient>
<linearGradient id="paint21_linear_26_2" x1="151.858" y1="97.2818" x2="203.886" y2="119.535" gradientUnits="userSpaceOnUse">
<stop stop-color="white" stop-opacity="0.9"/>
<stop offset="1" stop-color="white" stop-opacity="0"/>
</linearGradient>
<clipPath id="clip0_26_2">
<rect width="55" height="39" fill="white" transform="translate(32 131.62) rotate(-27.7636)"/>
</clipPath>
<clipPath id="clip1_26_2">
<rect width="33.4217" height="33.4217" fill="white" transform="translate(368.734 104) rotate(22.3971)"/>
</clipPath>
</defs>
</svg>
